<?xml version="1.0" encoding="UTF-8" standalone="no"?>
<!DOCTYPE svg PUBLIC "-//W3C//DTD SVG 1.1//EN" "http://www.w3.org/Graphics/SVG/1.1/DTD/svg11.dtd">
<svg width="100%" height="100%" viewBox="0 0 150 40" version="1.1" xmlns="http://www.w3.org/2000/svg" xmlns:xlink="http://www.w3.org/1999/xlink" xml:space="preserve" xmlns:serif="http://www.serif.com/" style="fill-rule:evenodd;clip-rule:evenodd;stroke-linejoin:round;stroke-miterlimit:2;">
    <path d="M48.427,21.593L50.459,21.378C50.575,22.114 50.82,22.636 51.195,22.973C51.569,23.326 52.074,23.494 52.708,23.494C53.386,23.494 53.89,23.341 54.222,23.034C54.568,22.728 54.741,22.375 54.741,21.976C54.741,21.715 54.669,21.501 54.524,21.316C54.38,21.132 54.121,20.979 53.775,20.841C53.53,20.749 52.968,20.58 52.103,20.365C50.993,20.059 50.2,19.706 49.753,19.276C49.119,18.663 48.802,17.927 48.802,17.068C48.802,16.5 48.946,15.979 49.249,15.488C49.551,15.012 49.969,14.629 50.532,14.384C51.094,14.123 51.771,14 52.564,14C53.861,14 54.842,14.307 55.49,14.905C56.153,15.503 56.485,16.316 56.528,17.328L54.438,17.421C54.351,16.853 54.164,16.454 53.861,16.209C53.573,15.963 53.126,15.841 52.55,15.841C51.944,15.841 51.469,15.963 51.123,16.224C50.906,16.408 50.791,16.623 50.791,16.914C50.791,17.175 50.892,17.39 51.108,17.574C51.368,17.819 52.002,18.065 53.011,18.31C54.034,18.571 54.784,18.832 55.26,19.108C55.75,19.368 56.139,19.752 56.413,20.212C56.687,20.688 56.816,21.27 56.816,21.976C56.816,22.605 56.658,23.188 56.326,23.74C55.995,24.292 55.533,24.691 54.928,24.967C54.337,25.228 53.587,25.366 52.694,25.366C51.382,25.366 50.387,25.044 49.681,24.399C48.989,23.755 48.571,22.82 48.427,21.593Z" style="fill:rgb(73,73,73);fill-rule:nonzero;"/>
    <path d="M64.322,25.166L64.322,14.184L66.397,14.184L66.397,19.062L70.606,14.184L73.417,14.184L69.525,18.463L73.619,25.166L70.924,25.166L68.084,20.013L66.397,21.853L66.397,25.166L64.322,25.166Z" style="fill:rgb(73,73,73);fill-rule:nonzero;"/>
    <path d="M83.132,25.166L83.132,20.549L79.355,14.184L81.791,14.184L84.213,18.525L86.591,14.184L88.999,14.184L85.208,20.565L85.208,25.166L83.132,25.166Z" style="fill:rgb(73,73,73);fill-rule:nonzero;"/>
    <path d="M98.075,25.166L98.075,16.04L95.005,16.04L95.005,14.184L103.207,14.184L103.207,16.04L100.151,16.04L100.151,25.166L98.075,25.166Z" style="fill:rgb(73,73,73);fill-rule:nonzero;"/>
    <path d="M110.279,25.166L110.279,14.184L117.933,14.184L117.933,16.04L112.354,16.04L112.354,18.479L117.544,18.479L117.544,20.335L112.354,20.335L112.354,23.31L118.12,23.31L118.12,25.166L110.279,25.166Z" style="fill:rgb(73,73,73);fill-rule:nonzero;"/>
    <path d="M132.213,21.132L134.231,21.807C133.914,23.004 133.41,23.893 132.689,24.476C131.968,25.059 131.046,25.35 129.95,25.35C128.566,25.35 127.442,24.86 126.563,23.863C125.683,22.866 125.237,21.501 125.237,19.767C125.237,17.942 125.683,16.531 126.577,15.519C127.456,14.506 128.624,14 130.065,14C131.334,14 132.357,14.399 133.15,15.196C133.611,15.657 133.972,16.331 134.202,17.206L132.141,17.743C132.011,17.175 131.766,16.715 131.377,16.393C130.988,16.055 130.512,15.902 129.965,15.902C129.201,15.902 128.581,16.193 128.105,16.776C127.629,17.359 127.384,18.295 127.384,19.614C127.384,20.994 127.629,21.991 128.091,22.574C128.566,23.157 129.172,23.464 129.921,23.464C130.469,23.464 130.959,23.264 131.348,22.896C131.752,22.528 132.04,21.93 132.213,21.132Z" style="fill:rgb(73,73,73);fill-rule:nonzero;"/>
    <path d="M141.74,25.166L141.74,14.184L143.831,14.184L143.831,18.51L147.91,18.51L147.91,14.184L150,14.184L150,25.166L147.91,25.166L147.91,20.365L143.831,20.365L143.831,25.166L141.74,25.166Z" style="fill:rgb(73,73,73);fill-rule:nonzero;"/>
    <path d="M13.91,9.987L8.507,9.987L8.507,29.764L13.91,30.819L13.91,9.987Z" style="fill:rgb(40,28,174);"/>
    <path d="M25.753,12.262L19.143,16.087L19.143,23.682L25.676,27.489L32.209,23.682L32.209,16.087L25.753,12.262Z" style="fill:rgb(48,64,207);"/>
    <path d="M32.209,16.087L32.209,23.683L25.753,19.876L32.209,16.087Z" style="fill:rgb(40,28,174);"/>
    <path d="M19.143,16.087L19.143,23.683L25.753,19.876L19.143,16.087Z" style="fill:rgb(40,28,174);"/>
    <path d="M25.753,12.262L19.143,16.087L25.753,19.876L32.209,16.087L25.753,12.262Z" style="fill:rgb(48,64,207);"/>
    <path d="M25.753,27.489L19.143,23.665L25.753,19.876L32.209,23.665L25.753,27.489Z" style="fill:rgb(19,19,135);"/>
    <path d="M13.911,26.675L8.507,29.764L25.767,39.771L42.778,29.891L37.459,26.742L25.753,33.6L13.911,26.675Z" style="fill:rgb(19,19,135);"/>
    <path d="M13.91,13.066L8.507,9.987L8.507,29.764L13.91,26.675L13.91,13.066Z" style="fill:rgb(40,28,174);"/>
    <path d="M37.52,13.026C42.992,9.825 43,9.823 43,9.823L25.753,0L8.507,9.987L13.911,13.066L25.753,6.178C25.753,6.178 37.392,13.101 37.52,13.026Z" style="fill:rgb(48,64,207);"/>
</svg>
